<svg width="32" height="32" viewBox="0 0 32 32" fill="none" xmlns="http://www.w3.org/2000/svg">
<path d="M30.6667 22.6667C30.6667 27.08 27.08 30.6667 22.6667 30.6667V28.6667C26 28.6667 28.6667 26 28.6667 22.6667H30.6667ZM1.33333 9.33333C1.33333 4.91999 4.91999 1.33333 9.33333 1.33333V3.33333C5.99999 3.33333 3.33333 5.99999 3.33333 9.33333H1.33333ZM10.6667 5.76L4.54666 11.8933C0.253327 16.1867 0.253327 23.16 4.54666 27.4533C8.83999 31.7467 15.8133 31.7467 20.1067 27.4533L29.5333 18C30.1867 17.3733 30.1867 16.32 29.5333 15.6667C29.3785 15.5115 29.1946 15.3883 28.9921 15.3043C28.7896 15.2203 28.5725 15.177 28.3533 15.177C28.1341 15.177 27.917 15.2203 27.7145 15.3043C27.5121 15.3883 27.3281 15.5115 27.1733 15.6667L21.28 21.56L20.3333 20.6133L29.0533 11.8933C29.7067 11.24 29.7067 10.1867 29.0533 9.53333C28.4 8.88 27.3333 8.88 26.6667 9.53333L18.92 17.3333L18 16.36L27.16 7.17333C27.8133 6.52 27.8133 5.46666 27.16 4.81333C26.5067 4.15999 25.4533 4.15999 24.8 4.81333L15.6133 14L14.6667 13.0667L22 5.76C22.6667 5.10666 22.6667 4.05333 22 3.39999C21.3333 2.74666 20.2933 2.74666 19.64 3.39999L9.47999 13.56C10.2755 14.5862 10.6697 15.8671 10.5887 17.163C10.5077 18.4589 9.9571 19.6809 9.03999 20.6L8.09333 19.6533C8.8424 18.9033 9.26314 17.8867 9.26314 16.8267C9.26314 15.7667 8.8424 14.75 8.09333 14L7.62666 13.5333L13.0533 8.10666C13.7067 7.45333 13.7067 6.39999 13.0533 5.74666C12.3867 5.10666 11.3333 5.10666 10.6667 5.76Z" fill="#FFD233"/>
</svg>
